<?xml version="1.0" encoding="utf-8"?>
<!-- Generator: Adobe Illustrator 25.3.0, SVG Export Plug-In . SVG Version: 6.00 Build 0)  -->
<svg version="1.1"
	 id="svg3476" sodipodi:docname="CSS3.svg" xmlns:cc="http://creativecommons.org/ns#" xmlns:dc="http://purl.org/dc/elements/1.1/" xmlns:inkscape="http://www.inkscape.org/namespaces/inkscape" xmlns:rdf="http://www.w3.org/1999/02/22-rdf-syntax-ns#" xmlns:sodipodi="http://sodipodi.sourceforge.net/DTD/sodipodi-0.dtd" xmlns:svg="http://www.w3.org/2000/svg"
	 xmlns="http://www.w3.org/2000/svg" xmlns:xlink="http://www.w3.org/1999/xlink" x="0px" y="0px" viewBox="0 0 128 128"
	 style="enable-background:new 0 0 128 128;" xml:space="preserve">
<style type="text/css">
	.st0{fill:#264DE4;}
	.st1{fill:#2965F1;}
	.st2{fill:#EBEBEB;}
	.st3{fill:#FFFFFF;}
</style>
<sodipodi:namedview  bordercolor="#666666" borderopacity="1.0" fit-margin-bottom="0" fit-margin-left="0" fit-margin-right="0" fit-margin-top="0" id="base" inkscape:current-layer="layer1" inkscape:cx="181.367" inkscape:cy="256" inkscape:document-units="px" inkscape:pageopacity="0.0" inkscape:pageshadow="2" inkscape:window-height="704" inkscape:window-maximized="1" inkscape:window-width="1366" inkscape:window-x="0" inkscape:window-y="27" inkscape:zoom="0.35" pagecolor="#ffffff" showgrid="false">
	</sodipodi:namedview>
<g id="layer1" transform="translate(-193.633,-276.3622)" inkscape:groupmode="layer" inkscape:label="Calque 1">
	<g id="g3013" transform="translate(119,276.3622)">
		<polygon id="polygon2989" class="st0" points="195.1,0 184.8,115.2 138.6,128 92.5,115.2 82.2,0 		"/>
		<polygon id="polygon2991" class="st1" points="176,107.9 184.8,9.4 138.6,9.4 138.6,118.2 		"/>
		<polygon id="polygon2993" class="st2" points="105.7,52.1 107,66.3 138.6,66.3 138.6,52.1 		"/>
		<polygon id="polygon2995" class="st2" points="138.6,23.5 138.6,23.5 103.2,23.5 104.5,37.7 138.6,37.7 		"/>
		<polygon id="polygon2997" class="st2" points="138.6,103.5 138.6,88.8 138.6,88.9 122.8,84.6 121.8,73.3 114.2,73.3 107.6,73.3 
			109.6,95.5 138.6,103.6 		"/>
		<polygon id="polygon3005" class="st3" points="156,66.3 154.3,84.6 138.6,88.9 138.6,103.6 167.6,95.5 167.8,93.1 171.1,55.9 
			171.4,52.1 174,23.5 138.6,23.5 138.6,37.7 158.5,37.7 157.2,52.1 138.6,52.1 138.6,66.3 		"/>
	</g>
</g>
</svg>
