<svg width="33" height="33" viewBox="0 0 33 33" fill="none" xmlns="http://www.w3.org/2000/svg">
<path d="M26.0299 7.74563C24.2772 6.9414 22.3976 6.34886 20.4324 6.00949C20.3966 6.00295 20.3608 6.01932 20.3424 6.05205C20.1007 6.48199 19.8329 7.04288 19.6454 7.48374C17.5317 7.16728 15.4288 7.16728 13.3585 7.48374C13.171 7.03306 12.8935 6.48199 12.6507 6.05205C12.6322 6.02041 12.5965 6.00404 12.5607 6.00949C10.5966 6.34777 8.71699 6.94031 6.96316 7.74563C6.94798 7.75218 6.93497 7.76309 6.9263 7.77727C3.36118 13.1035 2.38454 18.2988 2.86364 23.4298C2.86581 23.4549 2.8799 23.4789 2.89941 23.4941C5.25159 25.2215 7.53007 26.2702 9.76626 26.9653C9.80203 26.9762 9.83997 26.9631 9.86273 26.9337C10.3917 26.2113 10.8632 25.4496 11.2675 24.6487C11.2914 24.6017 11.2686 24.5461 11.2198 24.5275C10.4719 24.2438 9.75976 23.8979 9.0747 23.5051C9.0205 23.4734 9.01617 23.3959 9.06603 23.3588C9.21019 23.2508 9.35436 23.1384 9.49202 23.0249C9.51695 23.0042 9.55164 22.9998 9.58091 23.0129C14.0815 25.0677 18.9539 25.0677 23.4013 23.0129C23.4306 22.9987 23.4653 23.0031 23.4913 23.0238C23.6289 23.1373 23.7731 23.2508 23.9184 23.3588C23.9682 23.3959 23.965 23.4734 23.9108 23.5051C23.2257 23.9055 22.5136 24.2438 21.7645 24.5264C21.7158 24.545 21.6941 24.6017 21.7179 24.6487C22.1309 25.4485 22.6024 26.2102 23.1217 26.9326C23.1433 26.9631 23.1824 26.9762 23.2181 26.9653C25.4652 26.2702 27.7436 25.2215 30.0958 23.4941C30.1164 23.4789 30.1294 23.4559 30.1316 23.4309C30.705 17.499 29.1712 12.3462 26.0657 7.77837C26.0581 7.76309 26.0451 7.75218 26.0299 7.74563ZM11.9396 20.3056C10.5846 20.3056 9.46817 19.0616 9.46817 17.5339C9.46817 16.0062 10.563 14.7622 11.9396 14.7622C13.3271 14.7622 14.4327 16.0171 14.411 17.5339C14.411 19.0616 13.3162 20.3056 11.9396 20.3056ZM21.0773 20.3056C19.7224 20.3056 18.6059 19.0616 18.6059 17.5339C18.6059 16.0062 19.7007 14.7622 21.0773 14.7622C22.4648 14.7622 23.5704 16.0171 23.5487 17.5339C23.5487 19.0616 22.4648 20.3056 21.0773 20.3056Z" fill="#8726F8"/>
</svg>
