<svg width="22" height="17" viewBox="0 0 22 17" fill="none" xmlns="http://www.w3.org/2000/svg">
<path d="M18.3351 1.85453C17.0138 1.24826 15.5969 0.801583 14.1154 0.54575C14.0885 0.540815 14.0615 0.553154 14.0476 0.577832C13.8654 0.901942 13.6636 1.32477 13.5222 1.6571C11.9288 1.41854 10.3435 1.41854 8.78281 1.6571C8.64145 1.31736 8.43226 0.901942 8.24922 0.577832C8.23533 0.553976 8.20837 0.541637 8.1814 0.54575C6.70075 0.80076 5.28384 1.24744 3.96172 1.85453C3.95028 1.85946 3.94047 1.86769 3.93393 1.87838C1.24638 5.89356 0.510141 9.81002 0.871315 13.6779C0.872949 13.6969 0.883572 13.715 0.89828 13.7265C2.67146 15.0287 4.38908 15.8192 6.07483 16.3432C6.10179 16.3514 6.13039 16.3416 6.14755 16.3194C6.54631 15.7748 6.90177 15.2006 7.20656 14.5968C7.22454 14.5614 7.20738 14.5195 7.1706 14.5055C6.60678 14.2916 6.06992 14.0309 5.55349 13.7347C5.51264 13.7109 5.50937 13.6524 5.54696 13.6245C5.65564 13.543 5.76432 13.4583 5.86809 13.3728C5.88689 13.3571 5.91303 13.3538 5.9351 13.3637C9.32784 14.9127 13.0009 14.9127 16.3536 13.3637C16.3756 13.353 16.4018 13.3563 16.4214 13.3719C16.5252 13.4575 16.6338 13.543 16.7433 13.6245C16.7809 13.6524 16.7785 13.7109 16.7376 13.7347C16.2212 14.0366 15.6843 14.2916 15.1197 14.5047C15.0829 14.5187 15.0666 14.5614 15.0846 14.5968C15.3959 15.1998 15.7513 15.774 16.1427 16.3185C16.1591 16.3416 16.1885 16.3514 16.2155 16.3432C17.9094 15.8192 19.627 15.0287 21.4002 13.7265C21.4157 13.715 21.4255 13.6977 21.4271 13.6788C21.8594 9.20705 20.7032 5.32267 18.3621 1.87921C18.3564 1.86769 18.3466 1.85946 18.3351 1.85453ZM7.71318 11.3228C6.69176 11.3228 5.85011 10.385 5.85011 9.23337C5.85011 8.08171 6.67542 7.14393 7.71318 7.14393C8.75911 7.14393 9.59259 8.08994 9.57625 9.23337C9.57625 10.385 8.75094 11.3228 7.71318 11.3228ZM14.6016 11.3228C13.5802 11.3228 12.7386 10.385 12.7386 9.23337C12.7386 8.08171 13.5639 7.14393 14.6016 7.14393C15.6476 7.14393 16.481 8.08994 16.4647 9.23337C16.4647 10.385 15.6476 11.3228 14.6016 11.3228Z" fill="#8726F8"/>
</svg>
