<?xml version="1.0" encoding="utf-8"?>
<!-- Generator: Adobe Illustrator 26.2.1, SVG Export Plug-In . SVG Version: 6.00 Build 0)  -->
<svg version="1.1" id="Camada_1" xmlns="http://www.w3.org/2000/svg" xmlns:xlink="http://www.w3.org/1999/xlink" x="0px" y="0px"
	 viewBox="0 0 128 128" style="enable-background:new 0 0 128 128;" xml:space="preserve">
<style type="text/css">
	.st0{fill-rule:evenodd;clip-rule:evenodd;fill:#364548;}
	.st1{fill-rule:evenodd;clip-rule:evenodd;fill:#22A0C8;}
	.st2{fill-rule:evenodd;clip-rule:evenodd;fill:#37B1D9;}
	.st3{fill-rule:evenodd;clip-rule:evenodd;fill:#1B81A5;}
	.st4{fill-rule:evenodd;clip-rule:evenodd;fill:#1D91B4;}
	.st5{fill-rule:evenodd;clip-rule:evenodd;fill:#23A3C2;}
	.st6{fill-rule:evenodd;clip-rule:evenodd;fill:#34BBDE;}
	.st7{fill-rule:evenodd;clip-rule:evenodd;fill:#D3ECEC;}
	.st8{fill-rule:evenodd;clip-rule:evenodd;fill:#BDD9D7;}
</style>
<g>
	<path class="st0" d="M19.3,97.4v-8.2c0-1.1,0.7-1.9,1.8-1.9h0.3c1.1,0,1.8,0.9,1.8,1.9v17.2c0,4.2-2.1,7.6-5.7,9.7
		c-1.7,1-3.6,1.5-5.5,1.5h-0.8c-4.2,0-7.5-2.1-9.7-5.7c-1-1.7-1.5-3.6-1.5-5.5v-0.8c0-4.2,2.1-7.6,5.7-9.7c1.7-1,3.6-1.5,5.5-1.5H12
		C14.9,94.5,17.3,95.6,19.3,97.4L19.3,97.4z M4,106.1c0,3,1.5,5.3,4.1,6.8c1.1,0.6,2.2,0.9,3.5,0.9c3,0,5.2-1.4,6.7-3.9
		c0.7-1.2,1-2.5,1-3.8c0-2.6-1.2-4.7-3.4-6.2c-1.3-0.9-2.7-1.4-4.3-1.4c-3.3,0-5.6,1.6-7,4.6C4.2,103.9,4,105,4,106.1L4,106.1z
		 M36.7,94.5h0.5c4.5,0,7.9,2.2,10.1,6.1c0.9,1.6,1.3,3.3,1.3,5.1v0.8c0,4.2-2.1,7.6-5.7,9.7c-1.7,1-3.5,1.5-5.5,1.5h-0.8
		c-4.2,0-7.5-2.1-9.7-5.7c-1-1.7-1.5-3.6-1.5-5.5v-0.8c0-4.2,2.1-7.5,5.7-9.7C32.9,95,34.7,94.5,36.7,94.5L36.7,94.5z M29.4,106.1
		c0,2.9,1.4,5.1,3.9,6.6c1.2,0.7,2.5,1,3.8,1c2.9,0,5.1-1.5,6.6-3.9c0.7-1.2,1-2.5,1-3.8c0-2.7-1.3-4.8-3.6-6.4
		c-1.2-0.8-2.6-1.2-4.1-1.2c-3.3,0-5.6,1.6-7,4.6C29.6,103.9,29.4,105,29.4,106.1L29.4,106.1z M64.7,98.7c-0.6-0.3-1.7-0.4-2.3-0.4
		c-3.2-0.1-5.6,1.7-7,4.6c-0.5,1-0.7,2-0.7,3.1c0,3.3,1.7,5.6,4.7,7.1c1.1,0.5,2.5,0.6,3.7,0.6c1,0,2.5-0.6,3.4-1.1l0.2-0.1h0.7
		l0.1,0c0.9,0.2,1.5,0.7,1.5,1.7v0.4c0,2.4-4.3,2.9-6,3c-5.8,0.4-10.2-2.8-11.8-8.3c-0.3-1-0.4-1.9-0.4-2.9v-0.8
		c0-4.2,2.1-7.5,5.7-9.7c1.7-1,3.5-1.5,5.5-1.5h0.8c2.1,0,4,0.6,5.7,1.8l0.1,0.1l0.1,0.1c0.2,0.3,0.3,0.7,0.3,1v0.4
		c0,1-0.7,1.5-1.6,1.7l-0.1,0h-0.2C66.6,99.5,65.3,98.9,64.7,98.7L64.7,98.7z M77.3,101.3c1.5-1.5,3-3,4.5-4.5
		c0.4-0.4,2-2.2,2.7-2.2h0.7l0.1,0c0.9,0.2,1.5,0.7,1.5,1.7v0.4c0,0.6-0.8,1.4-1.2,1.8c-0.9,0.9-1.8,1.9-2.7,2.8l-4.7,4.8
		c2,2,4,4,6,6.1c0.6,0.6,1.1,1.1,1.7,1.7c0.2,0.2,0.5,0.5,0.6,0.7c0.2,0.3,0.3,0.6,0.3,0.9v0.4l0,0.1c-0.2,0.9-0.8,1.6-1.8,1.6h-0.3
		c-0.6,0-1.4-0.7-1.8-1.1c-0.9-0.9-1.8-1.8-2.7-2.6l-3-2.9v4.7c0,1.1-0.7,1.9-1.8,1.9h-0.3c-1.1,0-1.8-0.9-1.8-1.9V89.3
		c0-1.1,0.7-1.9,1.8-1.9h0.3c1.1,0,1.8,0.9,1.8,1.9V101.3L77.3,101.3z M125.7,94.7h0.4c1.2,0,1.9,0.8,1.9,1.9c0,1.6-1.5,2-2.9,2
		c-1.7,0-3.4,1.1-4.6,2.2c-1.5,1.5-2.2,3.4-2.2,5.4v9.4c0,1.1-0.7,1.9-1.8,1.9h-0.3c-1.1,0-1.8-0.9-1.8-1.9v-9.9
		c0-3.8,1.9-6.9,5-9.1C121.3,95.4,123.4,94.7,125.7,94.7L125.7,94.7z M98.1,113.3c1.4,0.5,3,0.4,4.5,0.2c0.7-0.3,2.6-1.1,3.3-1
		l0.1,0l0.1,0c0.4,0.2,0.8,0.5,1,0.9c0.5,1,0.3,2-0.7,2.6l-0.3,0.2c-3.7,2.1-7.6,1.8-11.3-0.2c-1.8-0.9-3.1-2.4-4.1-4.1l-0.2-0.4
		c-2.4-4.1-2-8.4,0.6-12.3c0.9-1.3,2.1-2.4,3.5-3.2l0.5-0.3c3.5-2,7.2-1.9,10.7-0.1c1.9,0.9,3.5,2.4,4.5,4.2l0.2,0.3
		c0.8,1.3-0.2,2.5-1.3,3.3c-1.2,0.9-2.4,2-3.6,3C103.2,108.8,100.7,111.1,98.1,113.3L98.1,113.3z M94.8,110.9
		c2.9-2.5,5.8-4.9,8.6-7.4c1-0.8,2.1-1.7,3-2.6c-0.8-1-2.1-1.7-3.2-2.1c-2.2-0.9-4.4-0.6-6.5,0.6c-2.7,1.6-3.8,4-3.7,7.1
		c0,1.2,0.4,2.4,1,3.4C94.2,110.3,94.5,110.6,94.8,110.9z M73.8,33.2h11.4v11.7h5.8c2.7,0,5.4-0.5,8-1.3c1.2-0.4,2.6-1,3.9-1.7
		c-1.6-2.1-2.4-4.8-2.7-7.4c-0.3-3.6,0.4-8.2,2.8-11l1.2-1.4l1.4,1.2c3.6,2.9,6.6,7,7.2,11.6c4.3-1.3,9.5-1,13.3,1.2l1.6,0.9
		l-0.8,1.6c-3.2,6.3-10,8.3-16.6,7.9c-9.9,24.7-31.5,36.4-57.7,36.4c-13.5,0-25.9-5.1-33-17l-0.1-0.2l-1-2.1
		c-2.4-5.3-3.2-11.1-2.6-16.8l0.2-1.7h9.8V33.2h11.4V21.8h22.9V10.3h13.7V33.2"/>
	<path class="st1" d="M110.9,37.5c0.8-6-3.7-10.7-6.5-12.9c-3.2,3.7-3.7,13.4,1.3,17.4c-2.8,2.5-8.7,4.7-14.7,4.7H17.7
		c-0.6,6.3,0.5,12.1,3,17l0.8,1.5c0.5,0.9,1.1,1.8,1.7,2.6c3,0.2,5.8,0.3,8.3,0.2h0c5-0.1,9.1-0.7,12.2-1.8c0.5-0.1,1,0.1,1.1,0.6
		c0.1,0.4-0.1,0.9-0.5,1.1c-0.4,0.1-0.8,0.3-1.3,0.4h0c-2.4,0.7-5,1.2-8.4,1.4c0.2,0-0.2,0-0.2,0c-0.1,0-0.3,0-0.4,0
		C32.8,70,31.4,70,29.9,70c-1.6,0-3.2,0-4.9-0.1l0,0c6.1,6.9,15.7,11,27.7,11c25.4,0,46.9-11.2,56.4-36.5c6.8,0.7,13.3-1,16.2-6.8
		C120.5,34.9,114.4,35.8,110.9,37.5"/>
	<path class="st2" d="M110.9,37.5c0.8-6-3.7-10.7-6.5-12.9c-3.2,3.7-3.7,13.4,1.3,17.4c-2.8,2.5-8.7,4.7-14.7,4.7h-69
		c-0.3,9.6,3.3,16.9,9.6,21.4h0c5-0.1,9.1-0.7,12.2-1.8c0.5-0.1,1,0.1,1.1,0.6c0.1,0.4-0.1,0.9-0.5,1.1c-0.4,0.1-0.8,0.3-1.3,0.4h0
		c-2.4,0.7-5.3,1.2-8.6,1.4c0,0-0.1-0.1-0.1-0.1c8.6,4.4,21.1,4.4,35.5-1.1c16.1-6.2,31.1-18,41.5-31.4
		C111.2,37.4,111.1,37.5,110.9,37.5"/>
	<path class="st3" d="M17.8,54.5c0.5,3.4,1.4,6.5,2.9,9.4l0.8,1.5c0.5,0.9,1.1,1.8,1.7,2.6c3,0.2,5.8,0.3,8.3,0.2
		c5-0.1,9.1-0.7,12.2-1.8c0.5-0.1,1,0.1,1.1,0.6c0.1,0.4-0.1,0.9-0.5,1.1c-0.4,0.1-0.8,0.3-1.3,0.4h0c-2.4,0.7-5.3,1.2-8.6,1.4
		c-0.1,0-0.3,0-0.4,0C32.7,70,31.3,70,29.9,70c-1.6,0-3.2,0-5-0.1c6.1,6.9,15.7,11,27.7,11c21.7,0,40.6-8.2,51.6-26.4H17.8"/>
	<path class="st4" d="M22.7,54.5c1.3,5.9,4.4,10.6,8.9,13.7c5-0.1,9.1-0.7,12.2-1.8c0.5-0.1,1,0.1,1.1,0.6c0.1,0.4-0.1,0.9-0.5,1.1
		c-0.4,0.1-0.8,0.3-1.3,0.4h0c-2.4,0.7-5.3,1.2-8.7,1.4c8.6,4.4,21.1,4.4,35.4-1.1c8.7-3.3,17-8.3,24.5-14.3H22.7"/>
	<path class="st5" d="M27.7,35.1h9.9V45h-9.9V35.1z M28.5,35.9h0.8v8.3h-0.8V35.9z M30,35.9h0.8v8.3H30L30,35.9L30,35.9z M31.5,35.9
		h0.8v8.3h-0.8V35.9z M33,35.9h0.8v8.3H33V35.9z M34.5,35.9h0.8v8.3h-0.8L34.5,35.9L34.5,35.9z M36,35.9h0.8v8.3H36V35.9z
		 M39.1,23.7H49v9.9h-9.9L39.1,23.7L39.1,23.7z M39.9,24.5h0.8v8.3h-0.8V24.5z M41.4,24.5h0.8v8.3h-0.8L41.4,24.5L41.4,24.5z
		 M42.9,24.5h0.8v8.3h-0.8V24.5z M44.4,24.5h0.8v8.3h-0.8V24.5z M45.9,24.5h0.8v8.3h-0.8V24.5z M47.4,24.5h0.8v8.3h-0.8V24.5z"/>
	<path class="st6" d="M39.1,35.1H49V45h-9.9L39.1,35.1L39.1,35.1z M39.9,35.9h0.8v8.3h-0.8V35.9z M41.4,35.9h0.8v8.3h-0.8L41.4,35.9
		L41.4,35.9z M42.9,35.9h0.8v8.3h-0.8V35.9z M44.4,35.9h0.8v8.3h-0.8V35.9z M45.9,35.9h0.8v8.3h-0.8V35.9z M47.4,35.9h0.8v8.3h-0.8
		V35.9z"/>
	<path class="st5" d="M50.6,35.1h9.9V45h-9.9V35.1z M51.4,35.9h0.8v8.3h-0.8V35.9z M52.9,35.9h0.8v8.3h-0.8V35.9z M54.4,35.9h0.8
		v8.3h-0.8V35.9z M55.9,35.9h0.8v8.3h-0.8V35.9z M57.4,35.9h0.8v8.3h-0.8V35.9z M58.9,35.9h0.8v8.3h-0.8V35.9z"/>
	<path class="st6" d="M50.6,23.7h9.9v9.9h-9.9V23.7z M51.4,24.5h0.8v8.3h-0.8V24.5z M52.9,24.5h0.8v8.3h-0.8V24.5z M54.4,24.5h0.8
		v8.3h-0.8V24.5z M55.9,24.5h0.8v8.3h-0.8V24.5z M57.4,24.5h0.8v8.3h-0.8V24.5z M58.9,24.5h0.8v8.3h-0.8V24.5z M62,35.1h9.9V45H62
		V35.1z M62.8,35.9h0.8v8.3h-0.8V35.9z M64.3,35.9h0.8v8.3h-0.8V35.9z M65.8,35.9h0.8v8.3h-0.8V35.9z M67.3,35.9h0.8v8.3h-0.8V35.9z
		 M68.8,35.9h0.8v8.3h-0.8V35.9z M70.3,35.9h0.8v8.3h-0.8V35.9z"/>
	<path class="st5" d="M62,23.7h9.9v9.9H62V23.7z M62.8,24.5h0.8v8.3h-0.8V24.5z M64.3,24.5h0.8v8.3h-0.8V24.5z M65.8,24.5h0.8v8.3
		h-0.8V24.5z M67.3,24.5h0.8v8.3h-0.8V24.5z M68.8,24.5h0.8v8.3h-0.8V24.5z M70.3,24.5h0.8v8.3h-0.8V24.5z"/>
	<path class="st6" d="M62,12.2h9.9v9.9H62V12.2z M62.8,13h0.8v8.3h-0.8V13L62.8,13z M64.3,13h0.8v8.3h-0.8V13L64.3,13z M65.8,13h0.8
		v8.3h-0.8V13L65.8,13z M67.3,13h0.8v8.3h-0.8V13L67.3,13z M68.8,13h0.8v8.3h-0.8V13L68.8,13z M70.3,13h0.8v8.3h-0.8V13L70.3,13z"/>
	<path class="st5" d="M73.5,35.1h9.9V45h-9.9V35.1z M74.3,35.9h0.8v8.3h-0.8L74.3,35.9L74.3,35.9z M75.8,35.9h0.8v8.3h-0.8
		L75.8,35.9L75.8,35.9z M77.3,35.9h0.8v8.3h-0.8V35.9z M78.8,35.9h0.8v8.3h-0.8V35.9z M80.3,35.9h0.8v8.3h-0.8V35.9z M81.8,35.9h0.8
		v8.3h-0.8V35.9z"/>
	<path class="st7" d="M48.4,61.1c1.5,0,2.8,1.2,2.8,2.7c0,1.5-1.2,2.8-2.7,2.8c0,0,0,0-0.1,0c-1.5,0-2.7-1.3-2.7-2.8
		C45.7,62.3,46.9,61.1,48.4,61.1"/>
	<path class="st0" d="M48.4,61.9c0.3,0,0.5,0,0.7,0.1c-0.4,0.2-0.5,0.7-0.3,1.1c0.1,0.2,0.4,0.4,0.7,0.4c0.3,0,0.6-0.2,0.7-0.4
		c0.4,1-0.1,2.1-1.1,2.6c-1,0.4-2.1-0.1-2.6-1.1c-0.4-1,0.1-2.1,1.1-2.6C47.9,61.9,48.2,61.9,48.4,61.9 M0,55.4h127.3
		c-2.8-0.7-8.8-1.7-7.8-5.3c-5,5.8-17.2,4.1-20.3,1.2c-3.4,5-23.3,3.1-24.7-0.8c-4.3,5-17.6,5-21.8,0c-1.4,3.9-21.3,5.7-24.7,0.8
		C25,54.2,12.8,56,7.8,50.2C8.8,53.8,2.8,54.7,0,55.4"/>
	<path class="st8" d="M55.7,80.8c-6.8-3.2-10.5-7.6-12.6-12.4c-2.5,0.7-5.5,1.2-9.1,1.4c-1.3,0.1-2.7,0.1-4.2,0.1
		c-1.7,0-3.5-0.1-5.3-0.1c6.2,6.2,13.9,11,28,11.1C53.6,80.9,54.7,80.9,55.7,80.8"/>
	<path class="st7" d="M45.6,72.9c-0.9-1.3-1.8-2.9-2.5-4.4c-2.5,0.7-5.5,1.2-9.1,1.4C36.5,71.2,39.9,72.4,45.6,72.9"/>
</g>
</svg>
