<svg width="36" height="36" viewBox="0 0 36 36" fill="none" xmlns="http://www.w3.org/2000/svg">
<path d="M18 18C18 15.5148 20.0147 13.5 22.5 13.5C24.9852 13.5 27 15.5148 27 18C27 20.4853 24.9852 22.5 22.5 22.5C20.0147 22.5 18 20.4853 18 18Z" fill="#1ABCFE"/>
<path d="M9 26.9999C9 24.5146 11.0147 22.4999 13.5 22.4999H18V26.9999C18 29.4852 15.9853 31.4999 13.5 31.4999C11.0147 31.4999 9 29.4852 9 26.9999Z" fill="#0ACF83"/>
<path d="M18 4.5V13.5H22.5C24.9853 13.5 27 11.4853 27 9C27 6.51472 24.9853 4.5 22.5 4.5H18Z" fill="#FF7262"/>
<path d="M9 9C9 11.4853 11.0147 13.5 13.5 13.5H18V4.5H13.5C11.0147 4.5 9 6.51472 9 9Z" fill="#F24E1E"/>
<path d="M9 18C9 20.4853 11.0147 22.5 13.5 22.5H18V13.5H13.5C11.0147 13.5 9 15.5148 9 18Z" fill="#A259FF"/>
</svg>
