<svg width="28" height="27" viewBox="0 0 28 27" fill="none" xmlns="http://www.w3.org/2000/svg">
<path fill-rule="evenodd" clip-rule="evenodd" d="M13.9988 0.5C6.54411 0.5 0.5 6.54411 0.5 14.0004C0.5 19.965 4.3678 25.0245 9.73233 26.8105C10.4078 26.934 10.6539 26.5171 10.6539 26.1591C10.6539 25.8392 10.6423 24.9897 10.6357 23.8634C6.88058 24.6789 6.08829 22.0534 6.08829 22.0534C5.47419 20.4945 4.58908 20.0793 4.58908 20.0793C3.36335 19.2415 4.6819 19.258 4.6819 19.258C6.03691 19.3542 6.74964 20.6495 6.74964 20.6495C7.95382 22.7123 9.90968 22.1164 10.6788 21.7716C10.8014 20.899 11.1495 20.3039 11.5357 19.9666C8.53809 19.626 5.38634 18.4674 5.38634 13.2943C5.38634 11.8208 5.9126 10.6158 6.77616 9.67183C6.63693 9.33038 6.17365 7.95796 6.90793 6.09907C6.90793 6.09907 8.04167 5.73607 10.6208 7.48309C11.6973 7.18391 12.8526 7.0339 14.0004 7.02893C15.1466 7.0339 16.3019 7.18391 17.3801 7.48309C19.9575 5.73607 21.0888 6.09907 21.0888 6.09907C21.8255 7.95796 21.3622 9.33038 21.223 9.67183C22.0882 10.6158 22.6112 11.8208 22.6112 13.2943C22.6112 18.4807 19.4544 19.6219 16.4469 19.9558C16.9317 20.3727 17.3635 21.1965 17.3635 22.4562C17.3635 24.2604 17.3469 25.7165 17.3469 26.1591C17.3469 26.5204 17.5897 26.9406 18.2751 26.8088C23.6355 25.0195 27.5 19.9633 27.5 14.0004C27.5 6.54411 21.4551 0.5 13.9988 0.5Z" fill="black"/>
</svg>
