<svg width="25" height="25" viewBox="0 0 25 25" fill="none" xmlns="http://www.w3.org/2000/svg">
<path fill-rule="evenodd" clip-rule="evenodd" d="M12.4989 0.125C5.66543 0.125 0.125 5.66543 0.125 12.5004C0.125 17.9679 3.67048 22.6058 8.58797 24.2429C9.20712 24.3561 9.43274 23.974 9.43274 23.6458C9.43274 23.3526 9.42211 22.5739 9.41603 21.5415C5.97387 22.289 5.2476 19.8823 5.2476 19.8823C4.68467 18.4533 3.87332 18.0727 3.87332 18.0727C2.74974 17.3047 3.95841 17.3199 3.95841 17.3199C5.2005 17.408 5.85384 18.5954 5.85384 18.5954C6.95767 20.4863 8.75054 19.94 9.45553 19.624C9.56797 18.8241 9.88704 18.2786 10.2411 17.9694C7.49325 17.6572 4.60414 16.5951 4.60414 11.8531C4.60414 10.5024 5.08655 9.3978 5.87815 8.53251C5.75052 8.21951 5.32585 6.96146 5.99894 5.25748C5.99894 5.25748 7.0382 4.92473 9.40236 6.52616C10.3892 6.25191 11.4482 6.11441 12.5004 6.10985C13.551 6.11441 14.61 6.25191 15.5984 6.52616C17.961 4.92473 18.998 5.25748 18.998 5.25748C19.6734 6.96146 19.2487 8.21951 19.1211 8.53251C19.9142 9.3978 20.3936 10.5024 20.3936 11.8531C20.3936 16.6073 17.4999 17.6534 14.743 17.9595C15.1874 18.3416 15.5832 19.0968 15.5832 20.2515C15.5832 21.9054 15.568 23.2401 15.568 23.6458C15.568 23.977 15.7906 24.3622 16.4189 24.2414C21.3326 22.6012 24.875 17.9664 24.875 12.5004C24.875 5.66543 19.3338 0.125 12.4989 0.125Z" fill="#8726F8"/>
</svg>
