<svg width="26" height="26" viewBox="0 0 26 26" fill="none" xmlns="http://www.w3.org/2000/svg">
<path fill-rule="evenodd" clip-rule="evenodd" d="M25.24 13.2898C25.24 12.3858 25.1589 11.5164 25.0082 10.6819H13V15.6138H19.8618C19.5663 17.2076 18.668 18.5579 17.3176 19.462V22.6611H21.4382C23.8491 20.4414 25.24 17.1728 25.24 13.2898Z" fill="#4285F4"/>
<path fill-rule="evenodd" clip-rule="evenodd" d="M13.0001 25.75C16.4426 25.75 19.3287 24.6083 21.4383 22.661L17.3177 19.4619C16.176 20.2269 14.7155 20.679 13.0001 20.679C9.67928 20.679 6.86848 18.4361 5.86587 15.4225H1.6062V18.7259C3.70416 22.8928 8.01598 25.75 13.0001 25.75Z" fill="#34A853"/>
<path fill-rule="evenodd" clip-rule="evenodd" d="M5.8658 15.4226C5.6108 14.6576 5.46592 13.8404 5.46592 13.0001C5.46592 12.1597 5.6108 11.3426 5.8658 10.5776V7.27417H1.60614C0.742614 8.99542 0.25 10.9427 0.25 13.0001C0.25 15.0575 0.742614 17.0048 1.60614 18.726L5.8658 15.4226Z" fill="#FBBC05"/>
<path fill-rule="evenodd" clip-rule="evenodd" d="M13.0001 5.32103C14.872 5.32103 16.5527 5.96433 17.8741 7.22774L21.531 3.5708C19.3229 1.51341 16.4368 0.25 13.0001 0.25C8.01598 0.25 3.70416 3.10716 1.6062 7.2741L5.86587 10.5775C6.86848 7.56387 9.67928 5.32103 13.0001 5.32103Z" fill="#EA4335"/>
</svg>
