<?xml version="1.0" encoding="utf-8"?>
<!-- Generator: Adobe Illustrator 25.3.0, SVG Export Plug-In . SVG Version: 6.00 Build 0)  -->
<svg version="1.1" id="Camada_1" xmlns="http://www.w3.org/2000/svg" xmlns:xlink="http://www.w3.org/1999/xlink" x="0px" y="0px"
	 viewBox="0 0 128 128" style="enable-background:new 0 0 128 128;" xml:space="preserve">
<style type="text/css">
	.st0{fill:#E34F26;}
	.st1{fill:#EF652A;}
	.st2{fill:#EBEBEB;}
	.st3{fill:#FFFFFF;}
</style>
<path class="st0" d="M17.9,115L7.6,0h112.8l-10.2,115l-46.2,13"/>
<path class="st1" d="M64.1,118l37.2-10.2l8.8-98.5h-46"/>
<path class="st2" d="M64.1,52H45.4l-1.2-14.5h20v-14h-0.2H28.6l0.2,3.8l3.5,39h31.8V52z M64.1,88.8h-0.2l-15.8-4.2l-1-11.2h-7.5
	h-6.5l1.8,22.2l29,8h0.2V88.8z"/>
<path class="st3" d="M63.9,52v14.2h17.5l-1.8,18.2l-15.8,4.2v14.8l29-8l0.2-2.5l3.2-37.2l0.5-3.8h-4H63.9z M63.9,23.5v8.8v5.2l0,0
	h34.2l0,0l0,0l0.2-3l0.8-7.2l0.2-3.8H63.9z"/>
</svg>
