<?xml version="1.0" encoding="utf-8"?>
<!-- Generator: Adobe Illustrator 25.3.0, SVG Export Plug-In . SVG Version: 6.00 Build 0)  -->
<svg version="1.1" id="svg4525" xmlns="http://www.w3.org/2000/svg" xmlns:xlink="http://www.w3.org/1999/xlink" x="0px" y="0px"
	 viewBox="0 0 128 128" style="enable-background:new 0 0 128 128;" xml:space="preserve">
<style type="text/css">
	.st0{fill:#D4B830;}
	.st1{opacity:0.986;fill:#EBEBEB;fill-opacity:0;enable-background:new    ;}
	.st2{opacity:0.986;fill:#EBEBEB;fill-opacity:0.9216;enable-background:new    ;}
	.st3{fill:#FDD83C;}
</style>
<g id="g5193" transform="translate(4.988 -113.385)">
	<path id="path5113" class="st0" d="M13.2,228.5L2.7,113.4l112.6,0l-10.4,115l-46,13L13.2,228.5z M96.5,222.2l8.7-98.6H59.1
		l0.4,108.7L96.5,222.2z M54.8,138.1H43.6l-0.1,59l-21.7-5.9l0,13.5l33,8.9L54.8,138.1L54.8,138.1z"/>
	<path id="path5159" class="st1" d="M51.1,212.4c-1.4-0.4-8.6-2.4-15.9-4.3L22,204.5v-6.6c0-6.5,0-6.6,0.7-6.4
		c0.4,0.1,5.2,1.4,10.7,3l10.1,2.8l0.1-29.4l0.1-29.4h11v37.4c0,29.7-0.1,37.4-0.4,37.4C54,213.2,52.6,212.8,51.1,212.4L51.1,212.4z
		"/>
	<path id="path5157" class="st2" d="M21.8,204.6l0-13.5c0,0,13.9,3.9,21.7,5.9l0.1-58.9h11.2v75.4L21.8,204.6L21.8,204.6z"/>
	<path id="path5117" class="st3" d="M59.1,123.6h46.1l-8.7,98.6l-37.4,10.1V123.6z M94.1,205.6l3-36.9l-22.4,2.5v-19.7l23.9-0.1
		l1-13.4l-36.1,0.2l0.5,48.9l21.8-3.7l-0.3,10.9l-22,5.8l0.2,13.4L94.1,205.6L94.1,205.6z"/>
</g>
</svg>
