<svg width="30" height="30" viewBox="0 0 30 30" fill="none" xmlns="http://www.w3.org/2000/svg">
<path fill-rule="evenodd" clip-rule="evenodd" d="M2.12941 4.00543e-05C0.953369 4.00543e-05 0 0.953407 0 2.12945V27.8706C0 29.0466 0.953369 30 2.12941 30H27.8706C29.0466 30 30 29.0466 30 27.8706V2.12945C30 0.953409 29.0466 4.00543e-05 27.8706 4.00543e-05H2.12941ZM6.73362 9.31655C8.17094 9.31655 9.33612 8.15138 9.33612 6.71406C9.33612 5.27674 8.17094 4.11157 6.73362 4.11157C5.2963 4.11157 4.13113 5.27674 4.13113 6.71406C4.13113 8.15138 5.2963 9.31655 6.73362 9.31655ZM11.7196 13.3965C11.7196 12.2054 12.6851 11.2399 13.8761 11.2399H15.6554C15.8638 11.2399 16.0327 11.4088 16.0327 11.6172V11.6172C16.0327 12.0154 16.7557 12.2598 17.0627 12.0062C17.7554 11.4343 18.8309 10.8749 20.3878 10.8749C23.2286 10.8749 25.5818 12.2743 25.5818 16.5399V23.3001C25.5818 24.5343 24.5813 25.5349 23.347 25.5349V25.5349C22.1127 25.5349 21.1122 24.5343 21.1122 23.3001V17.6299C21.1122 15.1136 19.7688 14.8368 18.7451 14.8368C16.6206 14.8368 16.2569 16.6693 16.2569 17.9581V23.2662C16.2569 24.5192 15.2412 25.5349 13.9882 25.5349V25.5349C12.7353 25.5349 11.7196 24.5192 11.7196 23.2662V13.3965ZM9.00229 13.5085C9.00229 12.2556 7.98657 11.2399 6.73362 11.2399V11.2399C5.48068 11.2399 4.46496 12.2556 4.46496 13.5085V23.2663C4.46496 24.5192 5.48068 25.5349 6.73362 25.5349V25.5349C7.98657 25.5349 9.00229 24.5192 9.00229 23.2663V13.5085Z" fill="#232323"/>
</svg>
