<svg width="16" height="16" viewBox="0 0 16 16" fill="none" xmlns="http://www.w3.org/2000/svg">
<path d="M2.62558 4.44306C3.63582 4.44306 4.45478 3.6241 4.45478 2.61387C4.45478 1.60363 3.63582 0.784668 2.62558 0.784668C1.61535 0.784668 0.796387 1.60363 0.796387 2.61387C0.796387 3.6241 1.61535 4.44306 2.62558 4.44306Z" fill="#8726F8"/>
<path d="M6.13001 5.79489H9.16159V7.18367C9.16159 7.18367 9.98424 5.53835 12.2226 5.53835C14.2193 5.53835 15.8733 6.52197 15.8733 9.52011V15.8424H12.7317V10.2862C12.7317 8.51758 11.7875 8.32306 11.068 8.32306C9.57477 8.32306 9.31913 9.61106 9.31913 10.5169V15.8424H6.13001V5.79489Z" fill="#8726F8"/>
<path d="M1.03103 5.7949H4.22014V15.8424H1.03103V5.7949Z" fill="#8726F8"/>
</svg>
