<?xml version="1.0" encoding="utf-8"?>
<!-- Generator: Adobe Illustrator 25.3.0, SVG Export Plug-In . SVG Version: 6.00 Build 0)  -->
<svg version="1.1" id="Camada_1" xmlns="http://www.w3.org/2000/svg" xmlns:xlink="http://www.w3.org/1999/xlink" x="0px" y="0px"
	 viewBox="0 0 128 128" style="enable-background:new 0 0 128 128;" xml:space="preserve">
<style type="text/css">
	.st0{fill:#599636;}
	.st1{fill:#6CAC48;}
	.st2{fill:#C2BFBF;}
</style>
<path class="st0" d="M63.6,0.3L67,6.8c0.8,1.2,1.6,2.2,2.6,3.2c2.9,2.8,5.6,5.9,8,9.1c5.8,7.6,9.7,16,12.5,25.2
	c1.7,5.6,2.6,11.3,2.6,17.1c0.3,17.3-5.6,32.1-17.6,44.5c-1.9,2-4,3.8-6.3,5.4c-1.2,0-1.7-0.9-2.2-1.7c-0.9-1.6-1.5-3.3-1.7-5
	c-0.4-2.1-0.7-4.2-0.6-6.3v-1C64.2,96.8,63.2,0.8,63.6,0.3L63.6,0.3z"/>
<path class="st1" d="M63.6,0.1c-0.1-0.3-0.3-0.1-0.4,0.1C63.2,1.6,62.8,2.9,62,4c-0.8,1.2-2,2.1-3.1,3.1c-6.2,5.4-11.1,11.9-15,19.1
	c-5.2,9.8-7.9,20.2-8.6,31.2c-0.3,4,1.3,18,2.5,22c3.4,10.7,9.6,19.7,17.5,27.5c2,1.9,4,3.6,6.2,5.3c0.6,0,0.7-0.6,0.8-1
	c0.3-0.9,0.5-1.8,0.6-2.7l1.4-10.5L63.6,0.1z"/>
<path class="st2" d="M67,115.4c0.1-1.6,0.9-2.9,1.7-4.3c-0.8-0.3-1.5-1-2-1.8c-0.4-0.7-0.8-1.5-1-2.3c-1-2.9-1.2-6-1.5-9v-1.8
	c-0.3,0.3-0.4,2.6-0.4,3c-0.2,3.2-0.6,6.3-1.3,9.4c-0.2,1.3-0.3,2.5-1.1,3.6c0,0.1,0,0.3,0.1,0.5c1.3,3.7,1.6,7.5,1.8,11.3v1.4
	c0,1.7-0.1,1.3,1.3,1.9c0.6,0.2,1.2,0.3,1.7,0.7c0.4,0,0.5-0.3,0.5-0.6l-0.2-2.3v-6.4C66.7,117.5,66.9,116.4,67,115.4L67,115.4z"/>
</svg>
