<?xml version="1.0" encoding="utf-8"?>
<!-- Generator: Adobe Illustrator 25.3.0, SVG Export Plug-In . SVG Version: 6.00 Build 0)  -->
<svg version="1.1" id="Camada_1" xmlns="http://www.w3.org/2000/svg" xmlns:xlink="http://www.w3.org/1999/xlink" x="0px" y="0px"
	 viewBox="0 0 128 128" style="enable-background:new 0 0 128 128;" xml:space="preserve">
<style type="text/css">
	.st0{fill:#FFFFFF;}
</style>
<path class="st0" d="M30.2,45.5h24.1v1.9H32.4v14.4H53v1.9H32.4v15.9h22.2v1.9H30.2L30.2,45.5z M56.5,45.5h2.6l11.4,15.9l11.6-15.9
	l15.8-20.1l-26,37.7l13.4,18.5h-2.7L70.4,64.7L58.2,81.6h-2.6l13.5-18.5L56.5,45.5z M86.2,47.4v-1.9h27.5v1.9h-12.7v34.1h-2.2V47.4
	H86.2z M0,45.5h2.8l38.1,57.1l-15.8-21L2.3,48.3L2.2,81.6H0L0,45.5z M113.5,79.1c-0.5,0-0.8-0.3-0.8-0.8c0-0.5,0.3-0.8,0.8-0.8
	c0.5,0,0.8,0.4,0.8,0.8S114,79.1,113.5,79.1z M115.7,77h1.2c0,0.6,0.5,1.1,1.2,1.1c0.8,0,1.2-0.5,1.2-1.3v-5.5h1.2v5.5
	c0,1.6-0.9,2.5-2.4,2.5C116.7,79.2,115.7,78.3,115.7,77L115.7,77z M122,76.9h1.2c0.1,0.7,0.8,1.2,1.9,1.2c1,0,1.7-0.5,1.7-1.2
	c0-0.6-0.5-0.9-1.5-1.2l-1-0.2c-1.4-0.3-2-1-2-2.2c0-1.4,1.1-2.3,2.8-2.3c1.6,0,2.7,0.9,2.8,2.2h-1.2c-0.1-0.7-0.7-1.2-1.6-1.2
	c-1,0-1.6,0.5-1.6,1.2c0,0.6,0.4,0.9,1.4,1.1l0.9,0.2c1.6,0.4,2.3,1,2.3,2.2c0,1.5-1.2,2.4-3,2.4C123.3,79.2,122.1,78.3,122,76.9
	L122,76.9z"/>
</svg>
