<?xml version="1.0" encoding="utf-8"?>
<!-- Generator: Adobe Illustrator 25.3.0, SVG Export Plug-In . SVG Version: 6.00 Build 0)  -->
<svg version="1.1" id="Camada_1" xmlns="http://www.w3.org/2000/svg" xmlns:xlink="http://www.w3.org/1999/xlink" x="0px" y="0px"
	 viewBox="0 0 128 128" style="enable-background:new 0 0 128 128;" xml:space="preserve">
<style type="text/css">
	.st0{fill:#539E43;}
	.st1{fill:#333333;}
	.st2{fill:url(#a_4_);}
	.st3{filter:url(#Adobe_OpacityMaskFilter);}
	.st4{fill:#FFFFFF;}
	.st5{mask:url(#c_1_);}
	.st6{fill:none;}
	.st7{fill:url(#SVGID_1_);}
	.st8{filter:url(#Adobe_OpacityMaskFilter_1_);}
	.st9{mask:url(#c_2_);}
	.st10{fill-rule:evenodd;clip-rule:evenodd;fill:url(#SVGID_2_);}
	.st11{fill-rule:evenodd;clip-rule:evenodd;fill:url(#SVGID_3_);}
	.st12{fill-rule:evenodd;clip-rule:evenodd;fill:url(#SVGID_4_);}
	.st13{fill-rule:evenodd;clip-rule:evenodd;fill:url(#SVGID_5_);}
	.st14{fill-rule:evenodd;clip-rule:evenodd;fill:url(#SVGID_6_);}
</style>
<g>
	<path class="st0" d="M63.3,103.2c-0.4,0-0.8-0.1-1.2-0.3l-3.8-2.3c-0.6-0.3-0.3-0.4-0.1-0.5c0.8-0.3,0.9-0.3,1.7-0.8
		c0.1-0.1,0.2,0,0.3,0l3,1.8c0.1,0.1,0.3,0.1,0.3,0L75,94.4c0.1-0.1,0.2-0.2,0.2-0.3V80.8c0-0.1-0.1-0.3-0.2-0.3l-11.5-6.7
		c-0.1-0.1-0.3-0.1-0.3,0l-11.5,6.7c-0.1,0.1-0.2,0.2-0.2,0.3v13.3c0,0.1,0.1,0.3,0.2,0.3l3.2,1.8c1.7,0.9,2.8-0.1,2.8-1.2V81.9
		c0-0.2,0.1-0.3,0.3-0.3h1.5c0.2,0,0.3,0.1,0.3,0.3v13.2c0,2.3-1.2,3.6-3.4,3.6c-0.7,0-1.2,0-2.7-0.7l-3-1.7
		c-0.8-0.4-1.2-1.2-1.2-2.1V80.8c0-0.9,0.5-1.7,1.2-2.1L62.1,72c0.7-0.4,1.7-0.4,2.4,0l11.5,6.7c0.8,0.4,1.2,1.2,1.2,2.1v13.3
		c0,0.9-0.5,1.7-1.2,2.1l-11.5,6.7C64.1,103.1,63.7,103.2,63.3,103.2L63.3,103.2z M66.9,94c-5.1,0-6.1-2.3-6.1-4.3
		c0-0.2,0.1-0.3,0.3-0.3h1.5c0.2,0,0.3,0.1,0.3,0.3c0.2,1.5,0.9,2.3,4,2.3c2.4,0,3.5-0.5,3.5-1.9c0-0.8-0.3-1.3-4.1-1.7
		c-3.2-0.3-5.1-1-5.1-3.5c0-2.3,2-3.7,5.3-3.7c3.7,0,5.5,1.3,5.8,4.1c0,0.1,0,0.2-0.1,0.3c-0.1,0.1-0.1,0.1-0.2,0.1h-1.5
		c-0.1,0-0.3-0.1-0.3-0.3c-0.3-1.6-1.2-2.1-3.6-2.1c-2.7,0-3,0.9-3,1.6c0,0.8,0.4,1.1,4,1.6c3.6,0.5,5.2,1.1,5.2,3.6
		C72.6,92.6,70.5,94,66.9,94z"/>
	<path class="st1" d="M27.5,51c0-0.5-0.3-1-0.8-1.3l-12.3-7.1c-0.2-0.1-0.4-0.2-0.7-0.2h-0.1c-0.2,0-0.5,0.1-0.7,0.2L0.8,49.8
		C0.3,50,0,50.5,0,51l0,19c0,0.3,0.1,0.5,0.4,0.6c0.2,0.1,0.5,0.1,0.7,0l7.3-4.2c0.5-0.3,0.8-0.8,0.8-1.3v-8.9c0-0.5,0.3-1,0.8-1.3
		l3.1-1.8c0.2-0.1,0.5-0.2,0.8-0.2c0.3,0,0.5,0.1,0.7,0.2l3.1,1.8c0.5,0.3,0.8,0.8,0.8,1.3v8.9c0,0.5,0.3,1,0.8,1.3l7.3,4.2
		c0.2,0.1,0.5,0.1,0.8,0c0.2-0.1,0.4-0.4,0.4-0.6L27.5,51L27.5,51z M86.5,24.9c-0.2-0.1-0.5-0.1-0.7,0c-0.2,0.1-0.4,0.4-0.4,0.6
		v18.8c0,0.2-0.1,0.3-0.3,0.5c-0.2,0.1-0.3,0.1-0.5,0L81.5,43c-0.5-0.3-1-0.3-1.5,0l-12.3,7.1c-0.5,0.3-0.8,0.8-0.8,1.3v14.1
		c0,0.5,0.3,1,0.8,1.3L80,73.9c0.5,0.3,1,0.3,1.5,0l12.3-7.1c0.5-0.3,0.8-0.8,0.8-1.3V30.3c0-0.5-0.3-1-0.8-1.3L86.5,24.9L86.5,24.9
		z M85.3,60.9c0,0.1-0.1,0.3-0.2,0.3L81,63.6c-0.1,0.1-0.3,0.1-0.4,0l-4.2-2.4c-0.1-0.1-0.2-0.2-0.2-0.3V56c0-0.1,0.1-0.3,0.2-0.3
		l4.2-2.4c0.1-0.1,0.3-0.1,0.4,0l4.2,2.4c0.1,0.1,0.2,0.2,0.2,0.3V60.9L85.3,60.9z M127.3,55.9c0.5-0.3,0.7-0.8,0.7-1.3v-3.4
		c0-0.5-0.3-1-0.7-1.3l-12.2-7.1c-0.5-0.3-1-0.3-1.5,0L101.4,50c-0.5,0.3-0.8,0.8-0.8,1.3v14.1c0,0.5,0.3,1,0.8,1.3l12.2,6.9
		c0.5,0.3,1,0.3,1.4,0l7.4-4.1c0.2-0.1,0.4-0.4,0.4-0.6c0-0.3-0.1-0.5-0.4-0.6L110,61.1c-0.2-0.1-0.4-0.4-0.4-0.6v-4.4
		c0-0.3,0.1-0.5,0.4-0.6l3.8-2.2c0.2-0.1,0.5-0.1,0.8,0l3.8,2.2c0.2,0.1,0.4,0.4,0.4,0.6v3.5c0,0.3,0.1,0.5,0.4,0.6
		c0.2,0.1,0.5,0.1,0.8,0L127.3,55.9L127.3,55.9z"/>
	<path class="st0" d="M114.2,55.2c0.1-0.1,0.2-0.1,0.3,0l2.3,1.4c0.1,0.1,0.1,0.1,0.1,0.3v2.7c0,0.1-0.1,0.2-0.1,0.3l-2.3,1.4
		c-0.1,0.1-0.2,0.1-0.3,0l-2.3-1.4c-0.1-0.1-0.1-0.1-0.1-0.3v-2.7c0-0.1,0.1-0.2,0.1-0.3L114.2,55.2z"/>
	<g transform="translate(134.068 70.501)">
		<g>
			
				<linearGradient id="a_4_" gradientUnits="userSpaceOnUse" x1="-1029.5206" y1="533.7116" x2="-1029.5414" y2="533.6746" gradientTransform="matrix(532.1024 0 0 -606.2871 547728.5 323560.125)">
				<stop  offset="0" style="stop-color:#41873F"/>
				<stop  offset="0.3288" style="stop-color:#418B3D"/>
				<stop  offset="0.6352" style="stop-color:#419637"/>
				<stop  offset="0.9319" style="stop-color:#3FA92D"/>
				<stop  offset="1" style="stop-color:#3FAE2A"/>
			</linearGradient>
			<path id="a_1_" class="st2" d="M-86.1-27.6c-0.5-0.3-1-0.3-1.5,0l-12.2,7c-0.5,0.3-0.7,0.8-0.7,1.3v14.1c0,0.5,0.3,1,0.7,1.3
				l12.2,7c0.5,0.3,1,0.3,1.5,0l12.2-7c0.5-0.3,0.7-0.8,0.7-1.3v-14.1c0-0.5-0.3-1-0.7-1.3L-86.1-27.6z"/>
		</g>
		<defs>
			<filter id="Adobe_OpacityMaskFilter" filterUnits="userSpaceOnUse" x="-100.6" y="-27.8" width="27.5" height="31.1">
				<feColorMatrix  type="matrix" values="1 0 0 0 0  0 1 0 0 0  0 0 1 0 0  0 0 0 1 0"/>
			</filter>
		</defs>
		<mask maskUnits="userSpaceOnUse" x="-100.6" y="-27.8" width="27.5" height="31.1" id="c_1_">
			<g class="st3">
				<path id="a_2_" class="st4" d="M-86.1-27.6c-0.5-0.3-1-0.3-1.5,0l-12.2,7c-0.5,0.3-0.7,0.8-0.7,1.3v14.1c0,0.5,0.3,1,0.7,1.3
					l12.2,7c0.5,0.3,1,0.3,1.5,0l12.2-7c0.5-0.3,0.7-0.8,0.7-1.3v-14.1c0-0.5-0.3-1-0.7-1.3L-86.1-27.6z"/>
			</g>
		</mask>
		<g class="st5">
			<path class="st6" d="M-87.6-27.6l-12.2,7c-0.5,0.3-0.8,0.8-0.8,1.3v14.1c0,0.3,0.1,0.7,0.4,0.9l13.7-23.5
				C-86.8-27.8-87.2-27.8-87.6-27.6L-87.6-27.6z M-86.4,3.3c0.1,0,0.2-0.1,0.3-0.1l12.2-7c0.5-0.3,0.8-0.8,0.8-1.3v-14.1
				c0-0.4-0.2-0.8-0.4-1L-86.4,3.3L-86.4,3.3z"/>
			
				<linearGradient id="SVGID_1_" gradientUnits="userSpaceOnUse" x1="-1029.5304" y1="533.6937" x2="-1029.4709" y2="533.7314" gradientTransform="matrix(519.687 0 0 -606.0386 534944.875 323428.4375)">
				<stop  offset="0.1376" style="stop-color:#41873F"/>
				<stop  offset="0.4032" style="stop-color:#54A044"/>
				<stop  offset="0.7136" style="stop-color:#66B848"/>
				<stop  offset="0.9081" style="stop-color:#6CC04A"/>
			</linearGradient>
			<path class="st7" d="M-73.9-20.5l-12.2-7c-0.1-0.1-0.2-0.1-0.4-0.1l-13.7,23.5c0.1,0.1,0.3,0.3,0.4,0.3l12.2,7
				c0.3,0.2,0.8,0.3,1.1,0.1l12.9-23.6C-73.6-20.4-73.7-20.5-73.9-20.5L-73.9-20.5z"/>
		</g>
		<defs>
			<filter id="Adobe_OpacityMaskFilter_1_" filterUnits="userSpaceOnUse" x="-100.6" y="-30.2" width="27.9" height="33.9">
				<feColorMatrix  type="matrix" values="1 0 0 0 0  0 1 0 0 0  0 0 1 0 0  0 0 0 1 0"/>
			</filter>
		</defs>
		<mask maskUnits="userSpaceOnUse" x="-100.6" y="-30.2" width="27.9" height="33.9" id="c_2_">
			<g class="st8">
				<path id="a_3_" class="st4" d="M-86.1-27.6c-0.5-0.3-1-0.3-1.5,0l-12.2,7c-0.5,0.3-0.7,0.8-0.7,1.3v14.1c0,0.5,0.3,1,0.7,1.3
					l12.2,7c0.5,0.3,1,0.3,1.5,0l12.2-7c0.5-0.3,0.7-0.8,0.7-1.3v-14.1c0-0.5-0.3-1-0.7-1.3L-86.1-27.6z"/>
			</g>
		</mask>
		<g class="st9">
			<path class="st6" d="M-73.1-5.2v-14.1c0-0.5-0.3-1-0.8-1.3l-12.2-7c-0.1-0.1-0.3-0.1-0.5-0.2l13.4,22.9
				C-73.1-5-73.1-5.1-73.1-5.2L-73.1-5.2z M-99.8-20.5c-0.5,0.3-0.8,0.8-0.8,1.3v14.1c0,0.5,0.3,1,0.8,1.3l12.2,7
				c0.3,0.2,0.6,0.2,1,0.2L-99.8-20.5L-99.8-20.5L-99.8-20.5z"/>
			
				<linearGradient id="SVGID_2_" gradientUnits="userSpaceOnUse" x1="-1022.4435" y1="408.3379" x2="-1017.4484" y2="408.3379" gradientTransform="matrix(4.5111 0 0 -1.6941 4514.0337 661.6595)">
				<stop  offset="9.192000e-02" style="stop-color:#6CC04A"/>
				<stop  offset="0.2864" style="stop-color:#66B848"/>
				<stop  offset="0.5968" style="stop-color:#54A044"/>
				<stop  offset="0.8624" style="stop-color:#41873F"/>
			</linearGradient>
			<path class="st10" d="M-87.9-30.2l-0.2,0.1L-87.9-30.2L-87.9-30.2z"/>
			
				<linearGradient id="SVGID_3_" gradientUnits="userSpaceOnUse" x1="-1029.5708" y1="533.6949" x2="-1029.5165" y2="533.6949" gradientTransform="matrix(519.1255 0 0 -606.527 534375.625 323688.125)">
				<stop  offset="9.192000e-02" style="stop-color:#6CC04A"/>
				<stop  offset="0.2864" style="stop-color:#66B848"/>
				<stop  offset="0.5968" style="stop-color:#54A044"/>
				<stop  offset="0.8624" style="stop-color:#41873F"/>
			</linearGradient>
			<path class="st11" d="M-73.8-3.9c0.3-0.2,0.6-0.5,0.7-0.9l-13.4-22.9c-0.3-0.1-0.7,0-1,0.2l-12.2,7l13.1,23.9
				c0.2,0,0.4-0.1,0.5-0.2L-73.8-3.9L-73.8-3.9z"/>
			
				<linearGradient id="SVGID_4_" gradientUnits="userSpaceOnUse" x1="-1176.1956" y1="601.2558" x2="-1171.2003" y2="601.2558" gradientTransform="matrix(1.6941 0 0 -3.9497 1911.3812 2370.5713)">
				<stop  offset="9.192000e-02" style="stop-color:#6CC04A"/>
				<stop  offset="0.2864" style="stop-color:#66B848"/>
				<stop  offset="0.5968" style="stop-color:#54A044"/>
				<stop  offset="0.8624" style="stop-color:#41873F"/>
			</linearGradient>
			<path class="st12" d="M-72.7-4.1l-0.1-0.1L-72.7-4.1L-72.7-4.1L-72.7-4.1z"/>
			
				<linearGradient id="SVGID_5_" gradientUnits="userSpaceOnUse" x1="-1030.0608" y1="535.4952" x2="-1029.9558" y2="535.4952" gradientTransform="matrix(268.5875 0 0 -167.5852 276560.5312 89740.4922)">
				<stop  offset="9.192000e-02" style="stop-color:#6CC04A"/>
				<stop  offset="0.2864" style="stop-color:#66B848"/>
				<stop  offset="0.5968" style="stop-color:#54A044"/>
				<stop  offset="0.8624" style="stop-color:#41873F"/>
			</linearGradient>
			<path class="st13" d="M-73.8-3.9l-12.2,7c-0.2,0.1-0.4,0.1-0.5,0.2l0.2,0.4l13.5-7.8v-0.2l-0.3-0.6C-73.2-4.5-73.5-4.1-73.8-3.9
				L-73.8-3.9z"/>
			
				<linearGradient id="SVGID_6_" gradientUnits="userSpaceOnUse" x1="-1029.9407" y1="535.6291" x2="-1030.0054" y2="535.4175" gradientTransform="matrix(268.5875 0 0 -167.5852 276560.5312 89740.4922)">
				<stop  offset="0" style="stop-color:#41873F"/>
				<stop  offset="0.3288" style="stop-color:#418B3D"/>
				<stop  offset="0.6352" style="stop-color:#419637"/>
				<stop  offset="0.9319" style="stop-color:#3FA92D"/>
				<stop  offset="1" style="stop-color:#3FAE2A"/>
			</linearGradient>
			<path class="st14" d="M-73.8-3.9l-12.2,7c-0.2,0.1-0.4,0.1-0.5,0.2l0.2,0.4l13.5-7.8v-0.2l-0.3-0.6C-73.2-4.5-73.5-4.1-73.8-3.9
				L-73.8-3.9z"/>
		</g>
	</g>
</g>
</svg>
