<?xml version="1.0" encoding="utf-8"?>
<!-- Generator: Adobe Illustrator 25.3.0, SVG Export Plug-In . SVG Version: 6.00 Build 0)  -->
<svg version="1.1" id="Camada_1" xmlns="http://www.w3.org/2000/svg" xmlns:xlink="http://www.w3.org/1999/xlink" x="0px" y="0px"
	 viewBox="0 0 128 128" style="enable-background:new 0 0 128 128;" xml:space="preserve">
<style type="text/css">
	.st0{fill:#336791;}
	.st1{fill:#FFFFFF;}
</style>
<path d="M125.7,76.7c-0.7-2.3-2.7-3.8-5.2-4.2c-1.2-0.2-2.6-0.1-4.2,0.2c-2.8,0.6-4.9,0.8-6.4,0.8c5.8-9.7,10.4-20.8,13.1-31.2
	c4.4-16.9,2-24.5-0.7-28C115.2,5.1,104.7,0.2,92,0c-6.8-0.1-12.7,1.3-15.8,2.2c-2.9-0.5-6-0.8-9.2-0.8c-6.1-0.1-11.5,1.2-16.1,4
	c-2.5-0.9-6.6-2.1-11.4-2.9C28.4,0.7,19.5,2.1,12.9,6.7C5,12.3,1.3,22,2,35.6c0.2,4.3,2.6,17.4,6.4,29.9c2.2,7.2,4.5,13.1,6.9,17.7
	c3.4,6.5,7.1,10.3,11.2,11.7c2.3,0.8,6.5,1.3,10.9-2.4c0.6,0.7,1.3,1.3,2.3,2c1.3,0.8,2.8,1.4,4.3,1.8c5.5,1.4,10.7,1,15.1-0.9
	c0,0.8,0,1.5,0.1,2.2c0,1,0.1,2.1,0.1,3c0.3,6.5,0.7,11.6,2,15.1c0.1,0.2,0.2,0.5,0.3,0.8c0.7,2,1.7,5.4,4.5,8
	c2.9,2.7,6.4,3.6,9.6,3.6c1.6,0,3.1-0.2,4.5-0.5c4.8-1,10.2-2.6,14.1-8.2c3.7-5.3,5.5-13.2,5.8-25.8c0-0.4,0.1-0.7,0.1-1l0.1-0.7
	l0.9,0.1l0.2,0c4.9,0.2,10.8-0.8,14.5-2.5C118.7,88.1,127.9,83.3,125.7,76.7"/>
<path class="st0" d="M117.4,78C103,80.9,102,76,102,76c15.3-22.7,21.6-51.4,16.1-58.4c-15-19.2-41-10.1-41.5-9.9l-0.1,0
	c-2.9-0.6-6.1-0.9-9.6-1c-6.5-0.1-11.5,1.7-15.3,4.6c0,0-46.4-19.1-44.2,24c0.5,9.2,13.2,69.5,28.3,51.2
	c5.5-6.7,10.9-12.3,10.9-12.3c2.7,1.8,5.8,2.7,9.2,2.3l0.3-0.2c-0.1,0.8,0,1.6,0.1,2.6c-3.9,4.4-2.8,5.1-10.6,6.7
	c-7.9,1.6-3.3,4.5-0.2,5.3c3.7,0.9,12.2,2.2,17.9-5.8L63,86.1c1.5,1.2,2.6,8,2.4,14.1c-0.2,6.1-0.3,10.3,0.9,13.6
	c1.2,3.3,2.4,10.6,12.7,8.5c8.6-1.8,13-6.6,13.6-14.5c0.4-5.6,1.4-4.8,1.5-9.9l0.8-2.4c0.9-7.6,0.1-10.1,5.4-9l1.3,0.1
	c3.9,0.2,9-0.6,12-2C120,81.6,123.8,76.6,117.4,78L117.4,78"/>
<path class="st1" d="M54.3,39.5c-1.3-0.2-2.5,0-3.1,0.4c-0.3,0.3-0.4,0.5-0.5,0.8c-0.1,0.5,0.3,1.1,0.5,1.4c0.7,0.9,1.6,1.5,2.6,1.6
	c0.1,0,0.3,0,0.4,0c1.6,0,3-1.2,3.1-2.1C57.6,40.4,55.9,39.7,54.3,39.5 M97.5,39.5c-0.1-0.9-1.7-1.1-3.2-0.9c-1.5,0.2-3,0.9-2.8,1.8
	c0.1,0.7,1.4,1.9,2.8,1.9c0.1,0,0.3,0,0.4,0c1-0.1,1.7-0.8,2.1-1.1C97.2,40.5,97.5,39.9,97.5,39.5"/>
<path class="st1" d="M122.2,77.6c-0.6-1.7-2.3-2.2-5.3-1.6c-8.8,1.8-11.9,0.6-12.9-0.2c6.8-10.4,12.4-22.9,15.4-34.6
	c1.4-5.5,2.2-10.7,2.3-14.9c0.1-4.6-0.7-8-2.3-10C112.9,8,103.4,3.5,91.8,3.4c-8-0.1-14.7,1.9-16,2.5c-2.7-0.7-5.7-1.1-9-1.2
	c-6-0.1-11.1,1.3-15.4,4.2c-1.9-0.7-6.7-2.3-12.5-3.3c-10.1-1.6-18.2-0.4-24,3.7C8,14.3,4.9,23,5.5,35.3c0.2,4.1,2.6,16.8,6.3,29
	c4.9,16,10.2,25.1,15.8,27c0.7,0.2,1.4,0.4,2.2,0.4c2,0,4.5-0.9,7.1-4c3.2-3.8,6.5-7.5,9.8-11.1c2.2,1.2,4.6,1.8,7.1,1.9
	c0,0.1,0,0.1,0,0.2c-0.4,0.5-0.8,1-1.2,1.5c-1.7,2.2-2.1,2.6-7.6,3.8c-1.6,0.3-5.7,1.2-5.8,4.1c-0.1,3.2,4.9,4.5,5.5,4.7
	c2,0.5,3.9,0.7,5.7,0.7c4.4,0,8.3-1.5,11.4-4.3c-0.1,11.4,0.4,22.6,1.7,26c1.1,2.8,3.8,9.6,12.5,9.6c1.3,0,2.7-0.1,4.2-0.5
	c9-1.9,12.9-5.9,14.4-14.7c0.8-4.7,2.2-15.9,2.9-21.9c1.4,0.4,3.2,0.6,5.1,0.6c4,0,8.6-0.9,11.5-2.2
	C117.4,84.5,123.3,80.8,122.2,77.6L122.2,77.6z M100.8,37c0,1.8-0.3,3.4-0.5,5.1c-0.3,1.8-0.6,3.7-0.6,5.9c-0.1,2.2,0.2,4.5,0.5,6.7
	c0.5,4.5,1.1,9.1-1,13.6c-0.4-0.6-0.7-1.3-0.9-1.9c-0.3-0.6-0.8-1.7-1.6-3.1c-3.1-5.6-10.4-18.6-6.7-24
	C90.9,37.8,93.7,36.2,100.8,37L100.8,37z M92.2,7c10.4,0.2,18.6,4.1,24.4,11.5c4.5,5.7-0.5,31.6-14.7,53.9c-0.1-0.2-0.3-0.4-0.4-0.5
	l-0.2-0.2c3.7-6.1,3-12.1,2.3-17.4c-0.3-2.2-0.5-4.2-0.4-6.2c0.1-2.1,0.3-3.8,0.6-5.5c0.3-2.1,0.7-4.3,0.6-6.8
	c0.1-0.3,0.1-0.6,0.1-1c-0.2-2.5-3-9.8-8.7-16.4C92.6,14.8,88,10.7,81.8,8C84.5,7.4,88.1,6.9,92.2,7L92.2,7z M34.2,85.3
	c-2.9,3.4-4.8,2.8-5.5,2.6c-4.2-1.4-9.2-10.4-13.5-24.6c-3.8-12.3-6-24.7-6.1-28.2c-0.5-11,2.1-18.6,7.9-22.7
	c9.4-6.7,24.9-2.7,31.2-0.7C48,11.8,48,11.9,47.9,12c-10.2,10.3-10,28-10,29.1c0,0.4,0,1,0.1,1.8c0.2,3,0.5,8.5-0.4,14.7
	c-0.8,5.8,1,11.5,4.9,15.6c0.4,0.4,0.8,0.8,1.3,1.2C42.1,76.2,38.2,80.4,34.2,85.3L34.2,85.3z M45.1,70.7c-3.2-3.3-4.6-7.9-4-12.6
	c0.9-6.6,0.6-12.4,0.4-15.5c0-0.4,0-0.8-0.1-1.1c1.5-1.3,8.4-5,13.4-3.9c2.3,0.5,3.6,2.1,4.2,4.7c3,13.7,0.4,19.4-1.7,23.9
	C57,67.2,56.6,68,56.2,69L56,69.7c-0.7,1.8-1.3,3.5-1.7,5.1C50.9,74.7,47.6,73.3,45.1,70.7L45.1,70.7z M45.6,89.1
	c-1-0.2-1.9-0.7-2.4-1c0.4-0.2,1.2-0.5,2.5-0.8c6.5-1.3,7.5-2.3,9.7-5.1c0.5-0.6,1.1-1.4,1.9-2.2l0,0c1.2-1.3,1.7-1.1,2.7-0.7
	c0.8,0.3,1.6,1.3,1.9,2.4c0.1,0.5,0.3,1.5-0.2,2.2C57.1,90.4,50.4,90.3,45.6,89.1z M79.6,120.7c-7.9,1.7-10.7-2.3-12.6-7
	c-1.2-3-1.8-16.5-1.4-31.3c0-0.2,0-0.4-0.1-0.6c0-0.4-0.1-0.7-0.2-1.1c-0.6-2.2-2.1-4-3.9-4.7c-0.7-0.3-2-0.8-3.6-0.4
	c0.3-1.4,0.9-3,1.6-4.7l0.3-0.7c0.3-0.8,0.7-1.6,1.1-2.5c2.2-4.8,5.1-11.3,1.9-26.2c-1.2-5.5-5.2-8.3-11.3-7.6
	c-3.6,0.4-7,1.8-8.6,2.7c-0.4,0.2-0.7,0.4-1,0.5c0.5-5.6,2.2-16,8.8-22.6c4.1-4.2,9.6-6.2,16.3-6.1c13.2,0.2,21.7,7,26.4,12.6
	c4.1,4.9,6.3,9.8,7.2,12.4c-6.7-0.7-11.2,0.6-13.5,3.9c-5,7.2,2.7,21.1,6.5,27.8c0.7,1.2,1.3,2.3,1.5,2.7c1.2,2.9,2.8,4.9,3.9,6.3
	c0.4,0.4,0.7,0.9,1,1.2c-2,0.6-5.7,1.9-5.3,8.7c-0.3,3.4-2.2,19.2-3.1,24.8C89.9,116.3,87.2,119.1,79.6,120.7L79.6,120.7z
	 M112.7,82.8c-2.1,1-5.5,1.7-8.8,1.8c-3.6,0.2-5.5-0.4-5.9-0.8c-0.2-4.2,1.4-4.6,3-5.1c0.3-0.1,0.5-0.1,0.8-0.2
	c0.2,0.1,0.3,0.2,0.5,0.4c2.9,1.9,8.1,2.1,15.5,0.6l0.1,0C116.8,80.4,115.1,81.7,112.7,82.8L112.7,82.8z"/>
</svg>
