<?xml version="1.0" encoding="utf-8"?>
<!-- Generator: Adobe Illustrator 25.3.0, SVG Export Plug-In . SVG Version: 6.00 Build 0)  -->
<svg version="1.1" id="Camada_1" xmlns="http://www.w3.org/2000/svg" xmlns:xlink="http://www.w3.org/1999/xlink" x="0px" y="0px"
	 viewBox="0 0 128 128" style="enable-background:new 0 0 128 128;" xml:space="preserve">
<style type="text/css">
	.st0{fill:#61DAFB;}
</style>
<g>
	<path class="st0" d="M128,64c0-8.5-10.6-16.5-26.9-21.5c3.8-16.6,2.1-29.8-5.3-34C94.1,7.5,92.2,7,90,7v5.8c1.2,0,2.2,0.2,3,0.7
		c3.5,2,5.1,9.8,3.9,19.8c-0.3,2.5-0.8,5-1.3,7.7c-5.1-1.3-10.7-2.2-16.6-2.8c-3.5-4.8-7.2-9.2-10.9-13c8.5-7.9,16.5-12.2,21.9-12.2
		V7c-7.2,0-16.6,5.1-26.1,14C54.5,12.2,45.1,7.1,37.9,7.1v5.8c5.4,0,13.4,4.3,21.9,12.2c-3.7,3.8-7.3,8.2-10.8,13
		c-5.9,0.6-11.5,1.6-16.6,2.9c-0.6-2.6-1-5.1-1.4-7.6c-1.2-10,0.3-17.7,3.8-19.8c0.8-0.5,1.8-0.7,3-0.7V7.1c-2.2,0-4.2,0.5-5.9,1.5
		c-7.3,4.2-9,17.4-5.2,33.9C10.6,47.5,0,55.6,0,64c0,8.5,10.6,16.5,26.9,21.5c-3.8,16.6-2.1,29.8,5.3,34c1.7,1,3.7,1.5,5.9,1.5
		c7.2,0,16.6-5.1,26.1-14c9.5,8.8,18.9,13.9,26.1,13.9c2.2,0,4.2-0.5,5.9-1.5c7.3-4.2,9-17.4,5.2-33.9C117.4,80.5,128,72.5,128,64
		L128,64z M94,46.6c-1,3.4-2.2,6.8-3.5,10.3c-1.1-2.1-2.2-4.2-3.4-6.3c-1.2-2.1-2.5-4.1-3.8-6.1C87,45.1,90.6,45.8,94,46.6L94,46.6z
		 M82.1,74.4c-2,3.5-4.1,6.9-6.3,10c-3.9,0.3-7.8,0.5-11.8,0.5c-3.9,0-7.9-0.2-11.7-0.5c-2.2-3.1-4.3-6.4-6.3-9.9
		c-2-3.4-3.8-6.9-5.4-10.4c1.6-3.5,3.4-7,5.4-10.4c2-3.5,4.1-6.9,6.3-10c3.9-0.3,7.8-0.5,11.8-0.5c3.9,0,7.9,0.2,11.7,0.5
		c2.2,3.1,4.3,6.4,6.3,9.9c2,3.4,3.8,6.9,5.4,10.4C85.8,67.5,84,71,82.1,74.4L82.1,74.4z M90.5,71c1.4,3.5,2.6,7,3.6,10.4
		c-3.4,0.8-7,1.5-10.7,2.1c1.3-2,2.6-4.1,3.8-6.2C88.3,75.2,89.4,73.1,90.5,71L90.5,71z M64.1,98.8c-2.4-2.5-4.9-5.3-7.3-8.3
		c2.3,0.1,4.7,0.2,7.2,0.2c2.5,0,4.9-0.1,7.3-0.2C68.9,93.5,66.5,96.3,64.1,98.8z M44.6,83.5c-3.7-0.5-7.3-1.2-10.7-2.1
		c1-3.4,2.2-6.8,3.5-10.3c1.1,2.1,2.2,4.2,3.4,6.3C42.1,79.5,43.4,81.5,44.6,83.5z M63.9,29.2c2.4,2.5,4.9,5.3,7.3,8.3
		c-2.3-0.1-4.7-0.2-7.2-0.2c-2.5,0-4.9,0.1-7.3,0.2C59.1,34.5,61.5,31.7,63.9,29.2z M44.6,44.5c-1.3,2-2.6,4.1-3.8,6.2
		c-1.2,2.1-2.3,4.2-3.4,6.3c-1.4-3.5-2.6-7-3.6-10.4C37.3,45.8,40.9,45.1,44.6,44.5L44.6,44.5z M21,77.2C11.8,73.3,5.8,68.1,5.8,64
		s6-9.3,15.2-13.2c2.2-1,4.7-1.8,7.2-2.6c1.5,5.1,3.4,10.4,5.9,15.9c-2.4,5.4-4.3,10.7-5.8,15.8C25.7,79.1,23.3,78.2,21,77.2
		L21,77.2z M35,114.5c-3.5-2-5.1-9.8-3.9-19.8c0.3-2.5,0.8-5,1.3-7.7c5.1,1.3,10.7,2.2,16.6,2.8c3.5,4.8,7.2,9.2,10.9,13
		c-8.5,7.9-16.5,12.2-21.9,12.2C36.8,115.2,35.8,114.9,35,114.5L35,114.5z M96.9,94.6c1.2,10-0.3,17.7-3.8,19.8
		c-0.8,0.5-1.8,0.7-3,0.7c-5.4,0-13.4-4.3-21.9-12.2c3.7-3.8,7.3-8.2,10.8-13c5.9-0.6,11.5-1.6,16.6-2.9
		C96.2,89.7,96.6,92.2,96.9,94.6z M107,77.2c-2.2,1-4.7,1.8-7.2,2.6c-1.5-5.1-3.4-10.4-5.9-15.9c2.4-5.4,4.3-10.7,5.8-15.8
		c2.6,0.8,5,1.7,7.3,2.7c9.2,3.9,15.2,9.1,15.2,13.2C122.2,68.1,116.2,73.3,107,77.2L107,77.2z"/>
	<circle class="st0" cx="64" cy="64" r="11.9"/>
</g>
</svg>
