<?xml version="1.0" encoding="utf-8"?>
<!-- Generator: Adobe Illustrator 25.3.0, SVG Export Plug-In . SVG Version: 6.00 Build 0)  -->
<svg version="1.1" id="Camada_1" xmlns="http://www.w3.org/2000/svg" xmlns:xlink="http://www.w3.org/1999/xlink" x="0px" y="0px"
	 viewBox="0 0 128 128" style="enable-background:new 0 0 128 128;" xml:space="preserve">
<style type="text/css">
	.st0{fill:#764ABC;}
</style>
<path class="st0" d="M88.7,88.1c4.7-0.5,8.3-4.6,8.1-9.4c-0.2-4.9-4.2-8.8-9.1-8.8h-0.3c-5.1,0.2-9,4.4-8.8,9.4
	c0.2,2.4,1.1,4.6,2.6,6c-5.5,10.9-14,18.9-26.7,25.6c-8.6,4.6-17.6,6.2-26.5,5.1c-7.3-1-13-4.2-16.6-9.6c-5.2-8-5.7-16.6-1.3-25.2
	c3.1-6.2,8-10.8,11.1-13c-0.7-2.1-1.6-5.7-2.1-8.3C-4.6,76.9-2.2,100,5,110.9c5.4,8.1,16.3,13.2,28.3,13.2c3.3,0,6.5-0.3,9.8-1.1
	C63.9,118.9,79.7,106.5,88.7,88.1L88.7,88.1z M117.4,67.9C105,53.4,86.7,45.4,65.9,45.4h-2.6c-1.5-2.9-4.6-4.9-8-4.9H55
	c-5,0.2-9,4.4-8.8,9.4c0.2,4.9,4.2,8.8,9.1,8.8h0.3c3.6-0.2,6.7-2.4,8-5.5h2.9c12.4,0,24.1,3.6,34.7,10.6c8.1,5.4,14,12.4,17.3,20.9
	c2.8,6.8,2.6,13.5-0.3,19.2c-4.6,8.6-12.2,13.4-22.3,13.4c-6.5,0-12.7-2-16-3.4c-1.8,1.6-5,4.2-7.3,5.9c7,3.3,14.2,5,21,5
	c15.6,0,27.2-8.6,31.6-17.3C129.9,98,129.6,81.8,117.4,67.9L117.4,67.9z M34.6,90.9c0.2,4.9,4.2,8.8,9.1,8.8h0.3
	c5-0.2,9-4.4,8.8-9.4c-0.2-4.9-4.2-8.8-9.1-8.8h-0.3c-0.3,0-0.8,0-1.1,0.2c-6.7-11.1-9.4-23.1-8.5-36.2c0.7-9.8,3.9-18.2,9.6-25.2
	c4.7-6,13.8-9,20-9.1C80.7,10.7,88,32.2,88.5,40.9c2.1,0.5,5.7,1.6,8.1,2.4c-2-26.4-18.2-40.1-33.9-40.1
	c-14.7,0-28.2,10.6-33.6,26.2c-7.5,20.8-2.6,40.9,6.5,56.7C34.9,87.3,34.4,89.1,34.6,90.9L34.6,90.9z"/>
</svg>
