<?xml version="1.0" encoding="utf-8"?>
<!-- Generator: Adobe Illustrator 25.3.0, SVG Export Plug-In . SVG Version: 6.00 Build 0)  -->
<svg version="1.1" id="Layer_1" xmlns="http://www.w3.org/2000/svg" xmlns:xlink="http://www.w3.org/1999/xlink" x="0px" y="0px"
	 viewBox="0 0 128 128" style="enable-background:new 0 0 128 128;" xml:space="preserve">
<style type="text/css">
	.st0{fill:#CD6799;}
</style>
<path class="st0" d="M110.2,71.2c-4.5,0-8.3,1.1-11.6,2.7c-1.2-2.4-2.4-4.5-2.6-6c-0.2-1.8-0.5-2.9-0.2-5.1c0.3-2.2,1.5-5.2,1.5-5.4
	c0-0.2-0.3-1.3-2.9-1.4c-2.6,0-4.8,0.5-5.1,1.2s-0.7,2.2-1.1,3.8c-0.4,2.3-5.1,10.7-7.8,15.1c-0.9-1.7-1.6-3.2-1.8-4.4
	c-0.2-1.8-0.5-2.9-0.2-5.1c0.3-2.2,1.5-5.2,1.5-5.4c0-0.2-0.3-1.3-2.9-1.4c-2.6,0-4.8,0.5-5.1,1.2c-0.3,0.7-0.5,2.3-1.1,3.8
	c-0.5,1.5-6.8,15.5-8.4,19.1c-0.8,1.8-1.6,3.3-2.1,4.3l0,0c0,0,0,0.1-0.1,0.2c-0.4,0.9-0.7,1.3-0.7,1.3s0,0,0,0
	c-0.4,0.6-0.7,1.2-0.9,1.2c-0.1,0-0.4-1.7,0-4c0.9-4.8,3.2-12.4,3.1-12.6c0-0.1,0.4-1.4-1.4-2.1c-1.8-0.7-2.5,0.4-2.6,0.4
	c-0.2,0-0.3,0.4-0.3,0.4s2-8.5-3.9-8.5c-3.7,0-8.8,4-11.3,7.7c-1.6,0.9-5,2.7-8.6,4.7c-1.4,0.8-2.8,1.5-4.1,2.3
	c-0.1-0.1-0.2-0.2-0.3-0.3C22.3,71.3,9,65.9,9.6,55.6c0.2-3.7,1.5-13.6,25.4-25.5c19.7-9.7,35.4-7,38.1-1.1
	c3.9,8.5-8.4,24.3-28.7,26.6c-7.8,0.9-11.8-2.1-12.9-3.2c-1.1-1.2-1.2-1.2-1.6-1c-0.7,0.4-0.2,1.4,0,2c0.6,1.6,3.1,4.4,7.3,5.8
	c3.7,1.2,12.8,1.9,23.8-2.4c12.3-4.8,22-18,19.1-29.1c-2.8-11.3-21.5-15-39.2-8.7C30.4,22.8,19,28.7,10.8,36.4
	C1,45.5-0.5,53.4,0.1,56.7c2.3,11.8,18.5,19.5,25,25.1c-0.3,0.2-0.6,0.4-0.9,0.5C21,84,8.6,90.4,5.5,97.3C2,105,6.1,110.6,8.8,111.4
	c8.3,2.3,16.9-1.8,21.5-8.7c4.6-6.9,4-15.8,1.9-19.9c0,0,0-0.1-0.1-0.1c0.8-0.5,1.7-1,2.5-1.5c1.7-1,3.3-1.9,4.7-2.6
	c-0.8,2.2-1.4,4.8-1.7,8.5c-0.4,4.4,1.4,10.1,3.8,12.3c1.1,1,2.3,1,3.1,1c2.8,0,4-2.3,5.4-5c1.7-3.3,3.2-7.2,3.2-7.2
	s-1.9,10.4,3.2,10.4c1.9,0,3.8-2.4,4.6-3.7c0,0,0,0,0,0s0-0.1,0.1-0.2c0.2-0.3,0.3-0.5,0.3-0.5s0,0,0,0c0.7-1.3,2.4-4.3,4.9-9.2
	c3.2-6.4,6.3-14.3,6.3-14.3s0.3,1.9,1.2,5.2c0.6,1.9,1.7,4,2.7,6c-0.7,1.1-1.2,1.6-1.2,1.6s0,0,0,0c-0.6,0.8-1.3,1.7-2,2.5
	c-2.5,3-5.6,6.5-6,7.5c-0.5,1.2-0.4,2.1,0.6,2.8c0.7,0.5,1.9,0.6,3.1,0.5c2.3-0.2,3.9-0.7,4.7-1.1c1.2-0.4,2.7-1.1,4-2.1
	c2.5-1.8,4-4.5,3.9-8c-0.1-1.9-0.7-3.8-1.5-5.6c0.2-0.3,0.4-0.7,0.7-1c4-5.8,7-12.1,7-12.1s0.3,1.9,1.2,5.2c0.5,1.6,1.4,3.4,2.3,5.1
	c-3.7,3-6,6.5-6.8,8.8c-1.5,4.3-0.3,6.2,1.8,6.6c1,0.2,2.4-0.3,3.4-0.7c1.3-0.4,2.9-1.1,4.3-2.2c2.5-1.8,4.9-4.4,4.8-7.9
	c-0.1-1.6-0.5-3.2-1.1-4.7c3.2-1.3,7.2-2,12.4-1.4c11.1,1.3,13.3,8.3,12.9,11.2c-0.4,2.9-2.8,4.5-3.5,5c-0.8,0.5-1,0.7-1,1
	c0.1,0.5,0.5,0.5,1.1,0.4c0.9-0.2,5.8-2.4,6.1-7.7C128.3,78.6,121.8,71.1,110.2,71.2z M24.4,100.1c-3.7,4-8.8,5.5-11.1,4.3
	c-2.4-1.4-1.4-7.3,3.1-11.6c2.8-2.6,6.3-5,8.7-6.5c0.5-0.3,1.3-0.8,2.3-1.4c0.2-0.1,0.3-0.1,0.3-0.1l0,0c0.2-0.1,0.4-0.2,0.6-0.4
	C29.8,90.5,28.2,95.9,24.4,100.1z M51.3,81.8C50,85,47.3,93,45.6,92.6c-1.4-0.4-2.3-6.5-0.3-12.5c1-3,3.1-6.6,4.4-8
	c2-2.2,4.2-3,4.8-2.1C55.2,71.2,52,79.9,51.3,81.8z M73.4,92.5c-0.5,0.3-1.1,0.5-1.3,0.3c-0.2-0.1,0.2-0.5,0.2-0.5s2.8-3,3.9-4.3
	c0.6-0.8,1.4-1.7,2.2-2.8c0,0.1,0,0.2,0,0.3C78.4,89.1,75,91.5,73.4,92.5z M90.6,88.6c-0.4-0.3-0.3-1.2,1-4.1
	c0.5-1.1,1.7-3.1,3.8-4.9c0.2,0.7,0.4,1.5,0.4,2.2C95.7,86.2,92.5,87.9,90.6,88.6z"/>
</svg>
