<?xml version="1.0" encoding="utf-8"?>
<!-- Generator: Adobe Illustrator 25.3.0, SVG Export Plug-In . SVG Version: 6.00 Build 0)  -->
<svg version="1.1" id="Layer_1" xmlns="http://www.w3.org/2000/svg" xmlns:xlink="http://www.w3.org/1999/xlink" x="0px" y="0px"
	 viewBox="0 0 128 128" style="enable-background:new 0 0 128 128;" xml:space="preserve">
<style type="text/css">
	.st0{fill:#007ACC;}
	.st1{fill:#FFFFFF;}
</style>
<path class="st0" d="M0,64V0h128v128H0"/>
<path class="st1" d="M28.1,64.2v5.2h16.6v47.4h11.8V69.4h16.6v-5.1c0-2.9,0-5.2-0.1-5.3c0-0.1-10.1-0.1-22.5-0.1L28.2,59L28.1,64.2
	L28.1,64.2L28.1,64.2z M102.8,58.9c3.3,0.8,5.8,2.2,8,4.6c1.2,1.3,2.9,3.5,3.1,4.1c0,0.2-5.5,3.9-8.9,6c-0.1,0.1-0.6-0.4-1.2-1.3
	c-1.7-2.4-3.4-3.4-6-3.6c-3.8-0.3-6.4,1.8-6.4,5.1c0,1,0.2,1.6,0.6,2.4c0.9,1.8,2.5,2.8,7.4,5c9.2,3.9,13.1,6.5,15.5,10.2
	c2.7,4.2,3.3,10.7,1.5,15.6c-2,5.3-7,9-14.2,10.1c-2.2,0.4-7.4,0.3-9.8-0.1c-5.1-1-10-3.5-13-6.8c-1.2-1.3-3.5-4.7-3.3-4.9l1.2-0.8
	l4.8-2.8l3.6-2.1l0.8,1.1c1.1,1.7,3.4,3.9,4.8,4.7c4.2,2.1,9.7,1.9,12.5-0.6c1.2-1.1,1.7-2.2,1.7-3.8c0-1.5-0.2-2.1-1-3.3
	c-1-1.4-3.1-2.6-8.8-5.1c-6.6-2.8-9.4-4.6-12.1-7.4c-1.5-1.7-2.9-4.3-3.5-6.4c-0.5-1.9-0.6-6.4-0.2-8.2c1.4-6.4,6.2-10.9,13.1-12.2
	C95.4,58,100.7,58.2,102.8,58.9L102.8,58.9L102.8,58.9z"/>
</svg>
