<svg width="20" height="20" viewBox="0 0 20 20" fill="none" xmlns="http://www.w3.org/2000/svg">
<path fill-rule="evenodd" clip-rule="evenodd" d="M10.5936 0.32813C12.9038 0.441671 15.0565 1.39435 16.7008 3.03966C18.4546 4.79459 19.4199 7.12735 19.419 9.60814C19.4169 14.7275 15.2493 18.8928 10.1297 18.8928C8.20443 18.8928 6.67452 18.3013 5.68666 17.7627L0.762207 19.0538L2.0801 14.2425C1.26718 12.8345 0.839427 11.2372 0.840098 9.60078C0.842153 4.48157 5.00936 0.31665 10.1295 0.31665L10.5936 0.32813ZM5.91479 16.0818L6.19677 16.2491C7.38221 16.9522 8.74104 17.3242 10.1265 17.3248H10.1296C14.3852 17.3248 17.8488 13.8628 17.8505 9.60761C17.8513 7.54561 17.049 5.6067 15.5913 4.14805C14.1335 2.6893 12.195 1.8855 10.1327 1.88483C5.87385 1.88483 2.41021 5.34643 2.40852 9.60131C2.40794 11.0595 2.81612 12.4796 3.589 13.7083L3.77257 14.0003L2.99259 16.848L5.91479 16.0818ZM14.8096 11.816C14.7515 11.7192 14.5968 11.6612 14.3647 11.545C14.1326 11.4289 12.9915 10.8677 12.7787 10.7902C12.5659 10.7129 12.4112 10.6742 12.2565 10.9064C12.1018 11.1386 11.6569 11.6612 11.5215 11.816C11.3861 11.9708 11.2507 11.9902 11.0187 11.8741C10.7865 11.758 10.0387 11.513 9.15208 10.7226C8.46205 10.1074 7.99622 9.34774 7.86082 9.11548C7.72546 8.88326 7.84638 8.75766 7.96257 8.64202C8.06701 8.53804 8.19473 8.37103 8.31078 8.23556C8.42684 8.10013 8.46549 8.0033 8.54289 7.84853C8.62025 7.69367 8.58155 7.55825 8.52355 7.44212C8.4655 7.32594 8.00132 6.18401 7.80791 5.71948C7.61946 5.26715 7.4281 5.32839 7.28564 5.32124C7.15041 5.31454 6.99552 5.31307 6.84081 5.31307C6.68606 5.31307 6.4346 5.37109 6.22184 5.6034C6.00908 5.83562 5.40946 6.39693 5.40946 7.53877C5.40946 8.68075 6.24119 9.78382 6.35724 9.93867C6.4733 10.0936 7.99394 12.4367 10.3223 13.4417C10.8761 13.6808 11.3085 13.8235 11.6455 13.9304C12.2016 14.107 12.7076 14.0821 13.1075 14.0223C13.5535 13.9557 14.4808 13.4611 14.6742 12.9193C14.8676 12.3773 14.8676 11.9128 14.8096 11.816Z" fill="#8726F8"/>
</svg>
